# xmcd
#
# Track frame offsets: 
#        150
#        5178
#        21260
#        50793
#        75348
#        98965
#        117148
#        137355
#        144448
#        164600
#        186050
#        203228
#        226795
#        248963
#        252753
#
# Disc length: 3575 seconds
#
# Revision: 3
# Processed by: cddbd v1.5.2PL0 Copyright (c) Steve Scherf et al.
# Submitted via: ExactAudioCopyFreeDBPlugin 1.0
#
DISCID=c50df50f
DTITLE=平井堅 - Ken's Bar II
DYEAR=2009
DGENRE=JPop
TTITLE0=Open
TTITLE1=even if ~instrumental~
TTITLE2=New York State Of Mind
TTITLE3=僕がどんなに君がすきか、君は知らない
TTITLE4=LOVE ~Destiny~
TTITLE5=DESPERADO
TTITLE6=MOON RIVER
TTITLE7=Intermission
TTITLE8=Because Of You
TTITLE9=LATELY
TTITLE10=わかれうた
TTITLE11=Heart Of Mine
TTITLE12=白い恋人たち
TTITLE13=Close
TTITLE14=Stardust
EXTD=YEAR: 2009
EXTT0=
EXTT1=
EXTT2=
EXTT3=
EXTT4=
EXTT5=
EXTT6=
EXTT7=
EXTT8=
EXTT9=
EXTT10=
EXTT11=
EXTT12=
EXTT13=
EXTT14=
PLAYORDER=
